<svg xmlns="http://www.w3.org/2000/svg" viewBox="0 0 512 512" role="img" aria-label="Piano">
  <!-- The app icon, redrawn from the numbers build/make-icon.mjs paints build/icon.png with: seven
       white keys, five black ones in the real pattern, and a note falling onto the fourth key. -->
  <rect width="512" height="512" rx="104" fill="#0e1217"/>
  <g fill="#f2f4f7">
    <rect x="52" y="300" width="53" height="150" rx="10"/>
    <rect x="111" y="300" width="53" height="150" rx="10"/>
    <rect x="170" y="300" width="53" height="150" rx="10"/>
    <rect x="229" y="300" width="53" height="150" rx="10"/>
    <rect x="288" y="300" width="53" height="150" rx="10"/>
    <rect x="347" y="300" width="53" height="150" rx="10"/>
    <rect x="406" y="300" width="53" height="150" rx="10"/>
  </g>
  <g fill="#15181d">
    <rect x="91" y="300" width="34" height="93" rx="8"/>
    <rect x="150" y="300" width="34" height="93" rx="8"/>
    <rect x="268" y="300" width="34" height="93" rx="8"/>
    <rect x="327" y="300" width="34" height="93" rx="8"/>
    <rect x="386" y="300" width="34" height="93" rx="8"/>
  </g>
  <rect x="239" y="96" width="33" height="176" rx="16" fill="#35b6f0"/>
</svg>
